# xmcd
#
# Track frame offsets:
# 150
# 12807
# 25243
# 39007
# 50820
# 64831
# 81806
# 96927
# 115007
# 127462
# 142444
# 156117
#
# Disc length: 2227 seconds
#
#
# Revision: 0
# Processed by: cddbd v1.5.2PL0 Copyright (c) Steve Scherf et al.
# Submitted via: FreeRIP 2.942 
#
DISCID=a608b10c
DTITLE=How Great Thou Art
DYEAR=2004
DGENRE=Gospel
TTITLE0=Just A Closer Walk With Thee - Patsy Cline
TTITLE1=This Little Light Of Mine - Brenda Lee
TTITLE2=Amazing Grace - Lee Greenwood
TTITLE3=I Shall Not Be Moved - The Jordanaires
TTITLE4=Leaning On The Everlasting Arms - Eddy Raven
TTITLE5=Pass Me Not O Gentle Savior - Bill Anderson
TTITLE6=Just As I Am - Holly Dunn
TTITLE7=Old Rugged Cross - T. Graham Brown
TTITLE8=Blessed Assurance - Sandra Posey
TTITLE9=Glad Reunion Day - Mark Gray
TTITLE10=He's Got The Whole World In His Hands - Deborah Allen
TTITLE11=The Lord's Prayer - Ed Bruce
EXTD=
EXTT0=
EXTT1=
EXTT2=
EXTT3=
EXTT4=
EXTT5=
EXTT6=
EXTT7=
EXTT8=
EXTT9=
EXTT10=
EXTT11=
PLAYORDER=
